<?xml version="1.0" encoding="utf-8"?>
<!-- Generator: Adobe Illustrator 23.0.6, SVG Export Plug-In . SVG Version: 6.00 Build 0)  -->
<svg version="1.1" id="Layer_1" xmlns="http://www.w3.org/2000/svg" xmlns:xlink="http://www.w3.org/1999/xlink" x="0px" y="0px"  xml:space="preserve">
<g>
	<path class="logo-fill" d="M0,49.9l13.7-2.8l4,17l0.1,0l5.1-18.9l13.9-2.9l-0.1,33.1l-9.1,1.9l0.3-22.9l-0.1,0l-5.9,24l-7.3,1.5L9,58.3
		l-0.1,0l0.2,22.8L0,83L0,49.9z"/>
	<path class="logo-fill" d="M49.2,60.6L38.2,42l9.8-2l5.5,11.2l5.3-13.4l11.5-2.4L59,58.5l0,12.2l-9.8,2L49.2,60.6z"/>
	<path class="logo-fill" d="M91.6,40.5c-1.2-5.5-4.5-6.7-9.9-5.6c-3.9,0.8-7.7,3.5-6.8,8c0.7,3.4,3.6,3.9,6.4,4.1l3.6,0.3
		c4.6,0.4,9.1,1,10.2,6.3c0.7,3.1,0.1,10.2-10.2,12.3c-7.1,1.5-13-0.9-14.3-8.6l3-0.6c1,6.2,5.2,7.8,11,6.6c4.1-0.9,8.6-3.9,7.6-8.7
		c-0.9-4.5-5.5-4.4-9.2-4.7l-3.3-0.3c-3.9-0.3-7-2-7.8-6.1c-1.3-6.4,3.7-10.2,9.4-11.4c6.5-1.3,12.2,0.1,13.4,7.6L91.6,40.5z"/>
	<path class="logo-fill" d="M99.3,29.3l3-0.6l0,21c0,1,0.1,1.8,0.3,2.8c0.8,4.7,4.9,6.2,10.1,5.1c5.7-1.2,8.5-4.9,8.5-10.5l0-22.4l3-0.6
		l0,22.6c0,7.8-4.2,12-11.4,13.5c-5.6,1.2-11.9-0.1-13.2-6.8c-0.1-0.7-0.2-1.6-0.3-2.6L99.3,29.3z"/>
	<path class="logo-fill" d="M130,22.9l12.3-2.6c4.8-1,9.1,0.1,10.2,5.4c0.9,4.1-1.2,7.8-5.2,9.3l0,0.1c3.4-0.3,6.1,2.1,6.8,5.4
		c1.6,7.5-4.1,11.2-10.7,12.6L129.7,56L130,22.9z M132.8,52.7l10.8-2.2c4.4-0.9,8.7-3.9,7.6-8.9c-1-4.6-4.8-4.9-8.7-4.1l-9.6,2
		L132.8,52.7z M132.9,36.8l10-2.1c4.1-0.9,7.5-3.7,6.6-8c-0.8-3.6-3.6-4.4-6.8-3.8l-9.8,2L132.9,36.8z"/>
	<path class="logo-fill" d="M168.7,14.8l3.3-0.7l12.4,30.5l-3.2,0.7l-3.7-9.5l-14.5,3l-3.8,11.1l-3.4,0.7L168.7,14.8z M164,35.9l12.6-2.6
		l-6.2-16.1l-0.1,0L164,35.9z"/>
	<path class="logo-fill" d="M187.6,10.9l13.5-2.8c5.3-1.1,8.9,1,10,6.2c1,4.7-1.6,9.1-6.2,10.3l0,0.1c3.1,0,4.6,2,5.2,4.8
		c0.5,2.2,0.5,4.5,0.9,6.7c0.2,0.8,0.5,2.1,1.1,2.6l-3.1,0.6c-0.4-0.1-1.1-2.8-1.1-3.1c-0.4-1.9-0.4-3.9-0.7-5.8
		c-0.6-3-2.2-4.9-5.4-4.2l-11.2,2.3l0,14.7l-3,0.6L187.6,10.9z M190.6,26l10.7-2.2c4.6-1,7.8-3.9,6.8-8.6c-0.8-3.7-2.7-5.2-6.6-4.4
		L190.6,13L190.6,26z"/>
	<path class="logo-fill" d="M215,5.2l3-0.6l0,21c0,1,0.1,1.8,0.3,2.8c0.8,4.7,4.9,6.2,10.1,5.1c5.7-1.2,8.5-4.9,8.5-10.5l0-22.4l3-0.6
		l0,22.6c0,7.8-4.2,12-11.4,13.5c-5.6,1.2-11.9-0.1-13.2-6.8c-0.1-0.7-0.2-1.6-0.3-2.6L215,5.2z"/>
	<path class="logo-fill" d="M120,2.6L120,2.6"/>
	<path class="logo-fill" d="M0,24.5v2.6L120,2.6V0L0,24.5"/>
	<path class="logo-fill" d="M120,0L0,24.5v2.6L120,2.6V0"/>
	<path class="logo-fill" d="M240,58.6L240,58.6"/>
	<path class="logo-fill" d="M120,80.4V83l120-24.4v-2.6L120,80.4"/>
	<path class="logo-fill" d="M240,55.9L120,80.4V83l120-24.4V55.9"/>
	<path class="logo-fill" d="M240,45.9L70.6,80.4V83L240,48.5V45.9z"/>
	<path class="logo-fill" d="M169.4,0L0,34.5v2.6L169.4,2.6V0z"/>
</g>
</svg>
